#N canvas -2 2 728 676 10;
#X declare -lib mrpeach;
#X obj 65 508 import mrpeach;
#X msg 192 507 send /xa \$1;
#X msg 285 506 send /ya \$1;
#X obj 231 547 packOSC;
#X obj 231 598 udpsend;
#X msg 317 595 disconnect;
#X msg 320 557 connect 192.168.1.111 12000;
#X obj 299 -5 tgl 15 0 empty empty empty 17 7 0 10 -262144 -1 -1 0
1;
#X obj 298 21 metro 150;
#X floatatom 373 -6 5 0 0 0 - - -;
#X obj 298 51 bng 15 250 50 0 empty empty empty 17 7 0 10 -262144 -1
-1;
#X obj 298 79 counter 2;
#X floatatom 296 111 5 0 0 0 - - -;
#X obj 294 141 select 0 1 2;
#X obj 160 183 bng 15 250 50 0 empty empty empty 17 7 0 10 -262144
-1 -1;
#X obj 147 208 random 6;
#X floatatom 157 254 5 0 0 0 - - -;
#X obj 152 281 select 0 1 2 3 4 5;
#X obj 85 320 0.16;
#X obj 125 319 0.32;
#X obj 166 318 0.48;
#X obj 212 320 0.64;
#X obj 253 320 0.8;
#X obj 288 320 0.96;
#X floatatom 183 374 5 0 0 0 - - -;
#X obj 435 179 bng 15 250 50 0 empty empty empty 17 7 0 10 -262144
-1 -1;
#X obj 422 204 random 6;
#X floatatom 432 250 5 0 0 0 - - -;
#X obj 427 277 select 0 1 2 3 4 5;
#X floatatom 458 370 5 0 0 0 - - -;
#X obj 360 316 0.11;
#X obj 400 315 0.22;
#X obj 441 314 0.33;
#X obj 487 316 0.44;
#X obj 528 316 0.55;
#X obj 563 316 0.66;
#X obj 494 412 *~ 600;
#X obj 552 412 *~ 400;
#X obj 514 449 osc~;
#X obj 514 481 *~ 0;
#X obj 521 518 dac~;
#X floatatom 572 449 5 0 0 0 - - -;
#X obj 624 235 vsl 15 128 0.7 0 0 0 empty empty empty 0 -9 0 10 -262144
-1 -1 6900 1;
#X obj 36 438 hsl 128 15 0 1 0 0 empty empty empty -2 -8 0 10 -262144
-1 -1 0 1;
#X connect 1 0 3 0;
#X connect 2 0 3 0;
#X connect 3 0 4 0;
#X connect 3 1 4 0;
#X connect 5 0 4 0;
#X connect 6 0 4 0;
#X connect 7 0 8 0;
#X connect 8 0 10 0;
#X connect 9 0 8 1;
#X connect 10 0 11 0;
#X connect 11 0 12 0;
#X connect 12 0 13 0;
#X connect 13 0 14 0;
#X connect 13 1 25 0;
#X connect 14 0 15 0;
#X connect 15 0 16 0;
#X connect 16 0 17 0;
#X connect 17 0 18 0;
#X connect 17 1 19 0;
#X connect 17 2 20 0;
#X connect 17 3 21 0;
#X connect 17 4 22 0;
#X connect 17 5 23 0;
#X connect 18 0 24 0;
#X connect 19 0 24 0;
#X connect 20 0 24 0;
#X connect 21 0 24 0;
#X connect 22 0 24 0;
#X connect 23 0 24 0;
#X connect 24 0 1 0;
#X connect 24 0 36 0;
#X connect 25 0 26 0;
#X connect 26 0 27 0;
#X connect 27 0 28 0;
#X connect 28 0 30 0;
#X connect 28 1 31 0;
#X connect 28 2 32 0;
#X connect 28 3 33 0;
#X connect 28 4 34 0;
#X connect 28 5 35 0;
#X connect 29 0 2 0;
#X connect 29 0 37 0;
#X connect 30 0 29 0;
#X connect 31 0 29 0;
#X connect 32 0 29 0;
#X connect 33 0 29 0;
#X connect 34 0 29 0;
#X connect 35 0 29 0;
#X connect 36 0 38 0;
#X connect 37 0 38 0;
#X connect 38 0 39 0;
#X connect 39 0 40 0;
#X connect 39 0 40 1;
#X connect 41 0 39 1;
#X connect 42 0 29 0;
#X connect 43 0 24 0;
